<?xml version="1.0" encoding="UTF-8" standalone="no"?>
<!-- Created with Inkscape (http://www.inkscape.org/) -->

<svg
   xmlns:dc="http://purl.org/dc/elements/1.1/"
   xmlns:cc="http://creativecommons.org/ns#"
   xmlns:rdf="http://www.w3.org/1999/02/22-rdf-syntax-ns#"
   xmlns:svg="http://www.w3.org/2000/svg"
   xmlns="http://www.w3.org/2000/svg"
   xmlns:xlink="http://www.w3.org/1999/xlink"
   xmlns:sodipodi="http://sodipodi.sourceforge.net/DTD/sodipodi-0.dtd"
   xmlns:inkscape="http://www.inkscape.org/namespaces/inkscape"
   width="744.09448819"
   height="1052.3622047"
   id="svg2"
   version="1.1"
   inkscape:version="0.47pre4 r22446"
   sodipodi:docname="python.svg"
   inkscape:export-filename="/home/danc/python.png"
   inkscape:export-xdpi="27.927401"
   inkscape:export-ydpi="27.927401">
  <defs
     id="defs4">
    <linearGradient
       inkscape:collect="always"
       id="linearGradient3939">
      <stop
         style="stop-color:#7f5f0d;stop-opacity:1;"
         offset="0"
         id="stop3941" />
      <stop
         style="stop-color:#7f5f0d;stop-opacity:0;"
         offset="1"
         id="stop3943" />
    </linearGradient>
    <linearGradient
       inkscape:collect="always"
       id="linearGradient3899">
      <stop
         style="stop-color:#808047;stop-opacity:1;"
         offset="0"
         id="stop3901" />
      <stop
         id="stop3907"
         offset="0.85221231"
         style="stop-color:#808047;stop-opacity:0.14509804;" />
      <stop
         style="stop-color:#808047;stop-opacity:0;"
         offset="1"
         id="stop3903" />
    </linearGradient>
    <linearGradient
       id="linearGradient2971">
      <stop
         id="stop2979"
         offset="0"
         style="stop-color:#4e4c24;stop-opacity:0.54166669;" />
      <stop
         style="stop-color:#050503;stop-opacity:0.09;"
         offset="1"
         id="stop2975" />
    </linearGradient>
    <inkscape:perspective
       sodipodi:type="inkscape:persp3d"
       inkscape:vp_x="0 : 526.18109 : 1"
       inkscape:vp_y="0 : 1000 : 0"
       inkscape:vp_z="744.09448 : 526.18109 : 1"
       inkscape:persp3d-origin="372.04724 : 350.78739 : 1"
       id="perspective10" />
    <linearGradient
       inkscape:collect="always"
       xlink:href="#linearGradient2971"
       id="linearGradient2977"
       x1="232.35303"
       y1="361.01678"
       x2="122.118"
       y2="373.99155"
       gradientUnits="userSpaceOnUse"
       gradientTransform="matrix(0.90530446,-0.046123,0.04155886,0.6718805,25.245589,168.58005)" />
    <linearGradient
       inkscape:collect="always"
       xlink:href="#linearGradient3899"
       id="linearGradient3905"
       x1="373.25137"
       y1="240.19954"
       x2="371.23105"
       y2="199.28836"
       gradientUnits="userSpaceOnUse"
       gradientTransform="matrix(1.0007031,0,0,0.48033415,-0.27646725,229.78732)" />
    <radialGradient
       inkscape:collect="always"
       xlink:href="#linearGradient3939"
       id="radialGradient3937"
       cx="551.01929"
       cy="321.31876"
       fx="551.01929"
       fy="321.31876"
       r="222.08369"
       gradientTransform="matrix(-0.65627198,-0.11101411,0.15786483,-0.21502364,890.85236,548.69223)"
       gradientUnits="userSpaceOnUse" />
  </defs>
  <sodipodi:namedview
     id="base"
     pagecolor="#ffffff"
     bordercolor="#666666"
     borderopacity="1.0"
     inkscape:pageopacity="0.0"
     inkscape:pageshadow="2"
     inkscape:zoom="0.98994949"
     inkscape:cx="693.10754"
     inkscape:cy="553.33476"
     inkscape:document-units="px"
     inkscape:current-layer="layer1"
     showgrid="false"
     inkscape:snap-midpoints="true"
     inkscape:object-nodes="true"
     inkscape:snap-object-midpoints="true"
     inkscape:object-paths="false"
     inkscape:snap-smooth-nodes="true"
     inkscape:snap-bbox="false"
     inkscape:bbox-nodes="true"
     inkscape:bbox-paths="true"
     inkscape:window-width="1600"
     inkscape:window-height="1095"
     inkscape:window-x="0"
     inkscape:window-y="33"
     inkscape:window-maximized="1" />
  <metadata
     id="metadata7">
    <rdf:RDF>
      <cc:Work
         rdf:about="">
        <dc:format>image/svg+xml</dc:format>
        <dc:type
           rdf:resource="http://purl.org/dc/dcmitype/StillImage" />
        <dc:title></dc:title>
      </cc:Work>
    </rdf:RDF>
  </metadata>
  <g
     inkscape:label="Layer 1"
     inkscape:groupmode="layer"
     id="layer1">
    <path
       style="fill:url(#linearGradient3905);fill-opacity:1;stroke:#7f5f0d;stroke-width:0.80250472px;stroke-linecap:butt;stroke-linejoin:miter;stroke-opacity:0.95121951"
       d="m 239.95072,396.40451 c -0.34534,-0.0371 -10.71008,-5.42799 -27.1684,3.83165 -19.56543,11.00777 -40.96453,19.36424 -51.40434,18.37168 -10.4398,-0.99259 -9.05259,0.46121 -10.12648,4.07298 -1.0739,3.61178 -2.02246,9.24978 11.90108,14.13012 13.92353,4.88031 39.41795,2.92795 46.49936,2.05901 7.08142,-0.86893 24.20462,-3.07485 36.36491,-5.72699 12.16033,-2.65215 24.37953,-3.3203 39.45959,-11.20272 15.08006,-7.88245 22.36943,-15.87612 24.73657,-19.55379 2.36708,-3.67767 3.40968,-7.796 8.9472,-12.6515 5.53751,-4.85551 37.68892,-40.86123 76.35179,-24.02934 38.66289,16.83189 45.33671,40.83011 50.36433,48.70442 5.02761,7.8743 30.76529,26.66498 49.00067,26.65572 17.82461,-0.009 66.73323,9.41945 103.16432,-30.9847 33.32733,-36.96184 34.20826,-60.48001 35.48552,-65.99555 3.81152,-16.45879 1.86438,-22.29336 -0.14952,-33.87828 -2.01386,-11.58491 -5.05244,23.1774 -19.36769,43.43107 -4.63099,6.55204 -5.71791,22.91767 -37.4732,44.35349 -31.75533,21.43582 -34.38908,20.79423 -44.67221,22.33444 -10.28316,1.5402 -39.80342,6.68144 -66.1094,-30.59795 -26.30599,-37.27944 -68.19197,-53.78675 -88.42497,-55.80485 -20.23298,-2.0181 -57.98628,6.50113 -79.72906,32.50838 -21.74277,26.00724 -36.00911,36.39917 -42.9652,39.29434 -6.95608,2.89515 -2.9588,-5.89382 -14.68487,-9.32163 z"
       id="path2858"
       sodipodi:nodetypes="cssssssssssssssssssssssc"
       inkscape:export-filename="/home/danc/python/pymeg/gui/gtk/pymeg.png"
       inkscape:export-xdpi="27.927401"
       inkscape:export-ydpi="27.927401" />
    <path
       sodipodi:type="arc"
       style="fill:#00ff00;fill-opacity:1"
       id="path2864"
       sodipodi:cx="185.41966"
       sodipodi:cy="376.11948"
       sodipodi:rx="13.151762"
       sodipodi:ry="7.8818936"
       d="m 198.57142,376.11948 a 13.151762,7.8818936 0 1 1 -26.30352,0 13.151762,7.8818936 0 1 1 26.30352,0 z"
       transform="matrix(0.87761524,-0.18271496,0.22604159,0.64820214,-37.296352,201.64237)"
       inkscape:export-filename="/home/danc/python/pymeg/gui/gtk/pymeg.png"
       inkscape:export-xdpi="27.927401"
       inkscape:export-ydpi="27.927401" />
    <path
       style="fill:none;stroke:#000000;stroke-width:0.7969836px;stroke-linecap:butt;stroke-linejoin:miter;stroke-opacity:1"
       d="m 189.2213,439.50825 c 52.86595,-10.57834 49.07238,-16.33587 45.90202,-17.78858 -4.15937,-1.90589 2.46498,-4.19059 5.80648,-3.16636 3.34152,1.02423 7.50467,0.6516 4.2018,-1.62158 -3.30286,-2.27317 7.00845,-0.0824 7.00845,-0.0824"
       id="path2886"
       sodipodi:nodetypes="csssc"
       inkscape:export-filename="/home/danc/python/pymeg/gui/gtk/pymeg.png"
       inkscape:export-xdpi="27.927401"
       inkscape:export-ydpi="27.927401" />
    <path
       style="fill:none;stroke:#000000;stroke-width:0.78113586px;stroke-linecap:butt;stroke-linejoin:miter;stroke-opacity:1"
       d="m 202.54231,408.65858 c 5.85955,1.54408 5.08913,2.37932 7.9071,2.9063 2.7613,0.51641 10.21417,1.23112 10.21417,1.23112 l -0.0105,0.0109"
       id="path2888"
       sodipodi:nodetypes="cscc"
       inkscape:export-filename="/home/danc/python/pymeg/gui/gtk/pymeg.png"
       inkscape:export-xdpi="27.927401"
       inkscape:export-ydpi="27.927401" />
    <path
       style="fill:#333333"
       d="m 218.45795,412.1994 c -5.13557,-0.54752 -7.58572,-0.88377 -8.64342,-1.18617 -0.32679,-0.0934 -1.05746,-0.40143 -1.62374,-0.68446 -1.54747,-0.77344 -1.97668,-0.94687 -3.62768,-1.46579 l -1.5146,-0.47603 1.21014,-0.51317 c 5.7334,-2.43128 13.00406,-2.57307 16.31962,-0.31825 1.71576,1.16683 1.95482,2.84839 0.64626,4.5454 -0.15245,0.19781 -0.29564,0.35862 -0.31798,0.3574 -0.0224,-0.002 -1.1242,-0.11782 -2.4486,-0.25893 l 0,0 z"
       id="path2894"
       inkscape:export-filename="/home/danc/python/pymeg/gui/gtk/pymeg.png"
       inkscape:export-xdpi="27.927401"
       inkscape:export-ydpi="27.927401" />
    <path
       style="fill:#333333"
       d="m 217.71767,412.08814 c -5.13146,-0.5691 -7.19608,-0.8775 -8.1633,-1.21941 -0.42269,-0.14942 -0.6735,-0.26108 -2.31052,-1.02864 -0.77109,-0.36154 -2.01971,-0.82132 -3.29826,-1.21446 -0.3978,-0.12234 -0.72415,-0.23674 -0.72522,-0.25425 -0.005,-0.0749 2.39524,-0.99239 3.35466,-1.28255 4.48709,-1.35714 9.26462,-1.4573 12.47385,-0.26154 0.40949,0.15258 0.93977,0.42542 1.35525,0.69734 1.6603,1.0866 2.0253,2.50525 1.06246,4.12957 -0.27466,0.46304 -0.54413,0.74934 -0.70926,0.75285 -0.0756,0.002 -1.44351,-0.14192 -3.03966,-0.31891 l 0,0 z"
       id="path2896"
       inkscape:export-filename="/home/danc/python/pymeg/gui/gtk/pymeg.png"
       inkscape:export-xdpi="27.927401"
       inkscape:export-ydpi="27.927401" />
    <path
       style="fill:#cccccc"
       d="m 220.45595,412.38403 c -0.09,-0.0107 -1.26539,-0.13881 -2.61228,-0.28389 -3.06659,-0.33031 -6.20818,-0.73978 -7.13891,-0.93051 -0.93065,-0.1907 -1.40966,-0.36283 -2.64864,-0.95169 -1.33286,-0.63348 -2.14006,-0.95195 -3.62037,-1.42847 -0.6658,-0.21431 -1.21222,-0.40548 -1.21425,-0.42481 -0.008,-0.074 2.37397,-0.97959 3.36326,-1.2788 4.47695,-1.35399 9.25795,-1.45318 12.46412,-0.25857 0.40949,0.15258 0.93977,0.42542 1.35525,0.69734 1.65642,1.08404 2.02773,2.49169 1.0808,4.0972 -0.41435,0.70268 -0.57098,0.81869 -1.02898,0.7622 z"
       id="path2898"
       inkscape:export-filename="/home/danc/python/pymeg/gui/gtk/pymeg.png"
       inkscape:export-xdpi="27.927401"
       inkscape:export-ydpi="27.927401" />
    <path
       style="fill:#cccccc"
       d="m 206.16465,417.15683 c -1.64203,-0.089 -3.2746,-0.39822 -4.43381,-0.83976 -0.689,-0.26245 -1.84877,-1.00191 -2.20256,-1.40437 -0.36404,-0.4141 -0.58119,-0.87564 -0.66883,-1.42161 -0.21718,-1.35313 0.83327,-2.92023 2.86821,-4.2789 0.47216,-0.31524 0.59,-0.36925 0.63326,-0.29022 0.0294,0.0534 0.45564,0.2116 0.94756,0.35161 1.7395,0.49504 2.85398,0.92356 4.21053,1.61898 1.04073,0.53355 1.56193,0.73852 2.35593,0.92656 1.06489,0.25219 4.3495,0.68193 8.49964,1.11205 l 1.86996,0.1938 -0.53522,0.41039 c -1.93856,1.48642 -5.02985,2.67957 -8.58578,3.31381 -1.06022,0.1891 -3.898,0.36517 -4.95889,0.30764 z"
       id="path2900"
       inkscape:export-filename="/home/danc/python/pymeg/gui/gtk/pymeg.png"
       inkscape:export-xdpi="27.927401"
       inkscape:export-ydpi="27.927401" />
    <path
       style="fill:#4d4d4d"
       d="m 219.47494,412.25432 c -3.44418,-0.39341 -7.07752,-0.84182 -7.91641,-0.97699 -1.30743,-0.21095 -2.0984,-0.45499 -3.36545,-1.03958 -1.34537,-0.62071 -2.36074,-1.02503 -3.71768,-1.48039 -0.59942,-0.20114 -1.0913,-0.38254 -1.09305,-0.40309 -0.0105,-0.12706 2.85894,-1.1531 4.18001,-1.49451 1.64385,-0.42483 2.74926,-0.60332 4.52196,-0.73013 2.39256,-0.17117 4.06939,-0.0604 5.80453,0.38311 1.84307,0.47115 3.32885,1.43116 3.8368,2.47906 0.40917,0.84414 0.18432,2.02975 -0.57345,3.02309 -0.2985,0.39119 -0.32079,0.39438 -1.67726,0.23943 l 0,0 z"
       id="path2902"
       inkscape:export-filename="/home/danc/python/pymeg/gui/gtk/pymeg.png"
       inkscape:export-xdpi="27.927401"
       inkscape:export-ydpi="27.927401" />
    <path
       sodipodi:type="arc"
       style="fill:#000000"
       id="path2904"
       sodipodi:cx="178.38785"
       sodipodi:cy="379.48962"
       sodipodi:rx="3.897155"
       sodipodi:ry="2.9954901"
       d="m 182.285,379.48962 a 3.897155,2.9954901 0 1 1 -7.79431,0 3.897155,2.9954901 0 1 1 7.79431,0 z"
       transform="matrix(0.43416825,-0.02211979,0.03533587,0.57127365,110.76506,201.7593)"
       inkscape:export-filename="/home/danc/python/pymeg/gui/gtk/pymeg.png"
       inkscape:export-xdpi="27.927401"
       inkscape:export-ydpi="27.927401" />
    <path
       sodipodi:type="arc"
       style="fill:#992a00;fill-opacity:1"
       id="path2906"
       sodipodi:cx="176.81035"
       sodipodi:cy="377.9043"
       sodipodi:rx="0.6496377"
       sodipodi:ry="0.45281777"
       d="m 177.45999,377.9043 a 0.6496377,0.45281777 0 1 1 -1.29928,0 0.6496377,0.45281777 0 1 1 1.29928,0 z"
       transform="matrix(1.4034598,-0.07150278,0.13992779,2.2622089,-100.1741,-427.5015)"
       inkscape:export-filename="/home/danc/python/pymeg/gui/gtk/pymeg.png"
       inkscape:export-xdpi="27.927401"
       inkscape:export-ydpi="27.927401" />
    <path
       style="fill:none;stroke:#000000;stroke-width:0.76747435px;stroke-linecap:butt;stroke-linejoin:miter;stroke-opacity:1"
       d="m 237.08092,423.92936 c 0.12396,0.007 2.14431,0.32895 2.26599,0.33217 12.86314,0.34022 9.02586,2.68677 27.58125,-3.10372 18.96686,-5.9189 26.37222,-14.1233 35.76523,-24.8256 9.39299,-10.70231 9.54441,-13.49833 21.02071,-21.9832 11.47629,-8.48486 18.2315,-14.63798 30.7413,-16.90184 12.50981,-2.26383 6.09899,-1.59672 20.60754,-2.44405 17.64164,-1.03031 34.53767,7.76709 34.53767,7.76709 0,0 14.36528,6.91258 27.49736,19.95266 17.26823,17.14729 12.65473,24.71736 21.54857,32.16441 8.89386,7.44706 9.55647,7.28089 25.19498,14.19298 15.77326,6.97161 56.81229,3.84453 60.87703,2.81594 4.06475,-1.0286 7.09778,-0.19732 27.27526,-11.41203 20.17747,-11.21472 23.24799,-20.90068 30.00131,-26.6667 6.7533,-5.76604 21.25822,-30.82172 27.04773,-44.75375 5.78949,-13.93203 6.20623,-14.61047 6.20623,-14.61047"
       id="path2916"
       sodipodi:nodetypes="csssssscsssssssc"
       inkscape:export-filename="/home/danc/python/pymeg/gui/gtk/pymeg.png"
       inkscape:export-xdpi="27.927401"
       inkscape:export-ydpi="27.927401" />
    <path
       style="fill:#aa8800;fill-opacity:1;stroke:url(#radialGradient3937);stroke-width:0.69330502"
       d="m 521.33389,441.53191 c -3.43088,0.019 -8.99662,-0.14232 -14.6216,-0.42398 -3.22096,-0.16128 -8.05171,-0.39194 -10.735,-0.51256 -5.46321,-0.24558 -7.75569,-0.61499 -12.20708,-1.96687 -6.61258,-2.00834 -13.43375,-5.40802 -21.35752,-10.64463 -7.19805,-4.75702 -12.35593,-9.09902 -15.12069,-12.72889 -0.58242,-0.76468 -2.41566,-3.92091 -4.07386,-7.01385 -4.17853,-7.79396 -5.51511,-9.9406 -9.00667,-14.46537 -5.62168,-7.28521 -11.14239,-12.41696 -19.61343,-18.23158 -7.38416,-5.06858 -18.60896,-10.66633 -25.26723,-12.60064 -17.43916,-5.06629 -35.76125,-0.92314 -54.06993,12.22682 -5.49576,3.94727 -16.53365,13.75538 -19.89638,17.67966 -1.03062,1.20278 -4.96124,7.60242 -4.93455,8.03422 0.006,0.11383 -0.48122,1.24113 -1.6321,2.39522 -11.07256,11.10324 -18.65033,17.83873 -40.89777,24.80358 -8.62177,2.69916 -24.01412,5.48347 -34.94386,7.04966 -5.55804,0.79644 -23.57556,3.2164 -23.30428,3.73725 0,0 -22.65066,0.98958 -20.43064,0.6383 22.44857,-3.55208 44.45603,-8.6057 47.58066,-14.60688 0.48984,-0.9408 -0.40675,-0.68328 2.55735,-0.39303 7.34144,0.71888 13.17197,1.34057 19.65822,-0.47429 13.06107,-3.65452 21.42365,-7.17984 29.14087,-12.90992 4.18172,-3.10493 8.10833,-6.82572 12.35365,-11.49959 2.13287,-2.34815 6.96674,-8.09519 10.91857,-12.98116 4.37224,-5.40579 7.14067,-7.84951 18.05383,-15.93624 12.85581,-9.52625 16.27545,-11.127 28.88664,-13.52195 l 6.20499,-1.17837 8.41344,-0.31427 c 6.14643,-0.22959 9.02977,-0.24053 10.70078,-0.0406 10.95674,1.31072 21.96904,5.0904 31.27286,10.73362 10.85853,6.5862 20.68222,14.82491 27.29165,22.88832 3.46603,4.22852 5.6691,7.79836 7.84931,12.71898 4.66977,10.5394 4.56804,10.39995 11.80221,16.18039 1.74703,1.39595 4.41977,3.21861 5.93944,4.05034 4.70436,2.57482 16.03018,7.56188 19.469,8.57269 4.69852,1.38113 11.93287,2.42073 19.58243,2.81396 8.24394,0.42386 11.84989,0.39063 23.82556,-0.2195 13.08706,-0.66675 14.6569,-0.85937 20.23906,-2.48344 4.4475,-1.29395 11.86226,-4.79534 21.15387,-9.98933 6.08874,-3.40356 9.27853,-5.53985 13.39195,-8.96896 4.10617,-3.42307 6.18414,-5.54553 10.72691,-10.95645 2.00572,-2.38905 4.65045,-5.32204 5.8772,-6.51777 4.17416,-4.06869 8.60596,-10.24533 14.51002,-20.22271 6.6365,-11.21513 10.26043,-18.43315 15.28217,-30.43851 0.83275,-1.9908 1.56655,-3.58498 1.63069,-3.54259 0.20661,0.13655 -2.06731,11.36238 -3.03784,14.99693 -4.17858,15.64848 -14.61182,33.39024 -30.19641,51.34919 -12.1071,13.9516 -23.88332,22.38629 -39.42572,28.23858 -11.23877,4.2318 -25.24547,6.59676 -39.54075,6.67624 l 0,0 -2e-5,2e-5 z"
       id="path2939"
       sodipodi:nodetypes="csssssssssssssssssssssssscccssssssssssssssssssssccc"
       inkscape:export-filename="/home/danc/python/pymeg/gui/gtk/pymeg.png"
       inkscape:export-xdpi="27.927401"
       inkscape:export-ydpi="27.927401" />
    <path
       style="fill:none;stroke:#7f5f0d;stroke-width:0.78113586px;stroke-linecap:butt;stroke-linejoin:miter;stroke-opacity:0.95294118"
       d="m 151.2515,422.68082 c 10.56153,3.15201 9.6785,7.22895 11.55907,6.17028 1.88058,-1.05867 2.74956,-4.05167 3.82342,-2.42139 1.07388,1.63028 3.02785,0.44752 3.02785,0.44752 l 28.41016,-9.41091 c 0,0 13.28737,7.10598 27.12447,-5.15323 13.83709,-12.25921 8.36738,-10.23537 14.81901,-10.80477 6.4516,-0.56942 4.82851,8.35543 14.6201,4.21782 9.79158,-4.13763 9.46825,-4.12115 9.46825,-4.12115"
       id="path2941"
       sodipodi:nodetypes="cssccsssc"
       inkscape:export-filename="/home/danc/python/pymeg/gui/gtk/pymeg.png"
       inkscape:export-xdpi="27.927401"
       inkscape:export-ydpi="27.927401" />
    <path
       style="fill:url(#linearGradient2977)"
       d="m 162.10217,428.5394 c -0.0716,-0.0542 -0.47046,-0.44694 -0.88636,-0.87258 -0.41592,-0.42563 -0.97073,-0.95251 -1.23291,-1.17085 -1.77031,-1.47409 -4.40331,-2.82372 -7.36515,-3.77522 -0.4209,-0.13522 -0.76664,-0.26843 -0.76835,-0.29603 -0.008,-0.12213 0.4666,-1.95326 0.5944,-2.29549 0.2012,-0.53893 0.51379,-0.8695 1.00748,-1.06523 1.15289,-0.45716 2.90681,-0.49337 7.10057,-0.14662 2.75366,0.2277 4.92212,0.13991 7.76477,-0.31433 8.07079,-1.28967 19.59824,-5.39605 31.97295,-11.38961 4.01991,-1.947 6.76898,-3.37206 11.54924,-5.98692 1.61766,-0.88488 3.38391,-1.82524 3.92502,-2.08969 3.29383,-1.60982 6.96167,-2.85677 10.08578,-3.42884 1.6386,-0.30006 2.17354,-0.36003 4.02634,-0.45137 1.58243,-0.0779 2.08339,-0.0803 2.99931,-0.0138 2.02262,0.14699 3.63603,0.44336 5.28001,0.96992 3.68361,1.17988 5.00619,1.76136 6.58135,2.89353 1.49776,1.07655 2.4994,2.24406 3.94247,4.59542 0.98938,1.6121 1.34854,2.07582 1.90198,2.45567 l 0.38939,0.26725 -0.44995,0.0223 c -0.60329,0.0294 -1.40586,-0.0749 -1.9143,-0.24922 -0.61678,-0.2114 -1.4549,-0.8097 -2.18135,-1.55717 -2.34797,-2.41601 -2.69164,-2.70854 -3.62948,-3.0893 -1.07339,-0.43578 -1.27064,-0.45236 -3.83328,-0.32178 -2.59395,0.13216 -2.79261,0.17052 -3.48105,0.67274 -0.21196,0.15462 -1.16751,1.08352 -2.12341,2.06422 -3.38949,3.47743 -7.45217,7.2616 -9.9448,9.26307 -3.70281,2.97319 -7.63274,4.80917 -11.9887,5.6009 -1.13104,0.20556 -4.18673,0.3625 -5.33126,0.27363 -2.50732,-0.19433 -5.1252,-0.81026 -7.11261,-1.67354 l -0.87,-0.37789 -14.10851,4.67134 c -7.75969,2.56923 -14.38025,4.77705 -14.71234,4.90624 -0.76668,0.29828 -1.29916,0.34309 -1.66646,0.14024 -0.1357,-0.0749 -0.3917,-0.31777 -0.56893,-0.53966 -0.38951,-0.48767 -0.64621,-0.63374 -1.07533,-0.61188 -0.61653,0.0314 -0.8538,0.21061 -1.85831,1.40341 -0.63966,0.75959 -1.56341,1.5993 -1.77093,1.60988 -0.0643,0.003 -0.17568,-0.0384 -0.2473,-0.0927 z m 48.00512,-11.49104 c 3.71716,-0.45854 7.28199,-1.72688 9.59666,-3.41438 0.35772,-0.26081 0.7099,-0.47722 0.7826,-0.48092 0.0728,-0.004 0.14764,-0.0611 0.16661,-0.12742 0.029,-0.10135 0.0624,-0.1113 0.20614,-0.0627 0.14863,0.0503 0.20787,0.0253 0.44145,-0.18643 l 0.26974,-0.24445 -0.26346,-0.0368 -0.26343,-0.0368 0.23278,-0.28181 c 0.59833,-0.72423 0.89706,-1.56429 0.84879,-2.38686 -0.18754,-3.19492 -6.37393,-4.76546 -13.31306,-3.37982 -1.61197,0.3219 -3.12963,0.7909 -4.59243,1.4192 -0.67336,0.28923 -1.30381,0.52295 -1.40101,0.51938 -0.11749,-0.004 -0.19161,0.0352 -0.22135,0.1182 -0.0246,0.0686 -0.33182,0.30741 -0.6828,0.53073 -1.33936,0.85214 -2.49858,2.01422 -2.87931,2.88641 -0.56923,1.30397 -0.25365,2.57188 0.86147,3.46149 0.1755,0.14 0.38314,0.33607 0.46144,0.43571 0.17527,0.22302 0.53922,0.42934 0.90809,0.51477 0.15306,0.0355 0.61289,0.16474 1.02185,0.28733 2.18511,0.65494 4.94808,0.8191 7.81916,0.46511 l 0,0 z"
       id="path2953"
       inkscape:export-filename="/home/danc/python/pymeg/gui/gtk/pymeg.png"
       inkscape:export-xdpi="27.927401"
       inkscape:export-ydpi="27.927401" />
  </g>
</svg>
